{"title":"Gone Girl 2014 480p FIRST HDCAM ENGLISH x264 Pimp4003","uid":11190097,"size":1846191420,"categoryP":"video","categoryS":"movies","magnet":"?xt=urn:btih:e33cef4cc1eeffce6b9a88847ebabec14d6ec4c7&amp;dn=Gone+Girl+2014+480p+FIRST+HDCAM+ENGLISH+x264+Pimp4003&amp;tr=udp%3A%2F%2Ftracker.openbittorrent.com%3A80&amp;tr=udp%3A%2F%2Fopen.demonii.com%3A1337&amp;tr=udp%3A%2F%2Ftracker.coppersurfer.tk%3A6969&amp;tr=udp%3A%2F%2Fexodus.desync.com%3A6969","seeders":314,"leechers":11,"uploader":"shawnmurthy","files":-1,"time":1412979544,"description":"PIMP4003 PROUDLY PRESENTS....A PIMP4003 EXCLUSIVE\n &lt;a href=&quot;\nhttp://i.imgur.com/fW5GLTr.jpg&quot; rel=&quot;nofollow&quot; target=&quot;_NEW&quot;&gt;\nhttp://i.imgur.com/fW5GLTr.jpg&lt;/a&gt;\n\nSOURCE IS PIMP4003 AND YES IN ENGLISH.....FOR THE FIRST VERSION THIS CAM IS NOT BAD AT ALL.....WAS VERY DARK IN CERTAIN PARTS BRIGHTENED IT AND FIXED THE CONTRAST AS WELL.....AUDIO WAS A LITTLE HOLLOW AND OUT OF SYNC FIXED THAT AS WELL............ENJOY.....PIMP4003\n &lt;a href=&quot;\nhttp://i.imgur.com/l7tRHWW.jpg&quot; rel=&quot;nofollow&quot; target=&quot;_NEW&quot;&gt;\nhttp://i.imgur.com/l7tRHWW.jpg&lt;/a&gt;\n\nFOR REQUESTS, EXCLUSIVE MOVIES AND SUPER FAST SPEEDS AND FOR SCREENSHOTS AND SAMPLE....CLICK BELOW LINK\n\nGone Girl 2014 480p FIRST HDCAM ENGLISH x264 Pimp4003\n\nENJOY\n\nPIMP4003\n\nVideo\nID                                       : 1\nFormat                                   : MPEG-4 Visual\nFormat profile                           : Simple@L3\nFormat settings, BVOP                    : No\nFormat settings, QPel                    : No\nFormat settings, GMC                     : No warppoints\nFormat settings, Matrix                  : Default (H.263)\nCodec ID                                 : 20\nDuration                                 : 2h 25mn\nBit rate                                 : 1 561 Kbps\nWidth                                    : 720 pixels\nHeight                                   : 480 pixels\nDisplay aspect ratio                     : 3:2\nFrame rate mode                          : Variable\nFrame rate                               : 59.940 fps\nMinimum frame rate                       : 59.916 fps\nMaximum frame rate                       : 60.157 fps\nStandard                                 : NTSC\nColor space                              : YUV\nChroma subsampling                       : 4:2:0\nBit depth                                : 8 bits\nScan type                                : Progressive\nCompression mode                         : Lossy\nBits/(Pixel*Frame)                       : 0.075\nStream size                              : 1.58 GiB (92%)\nWriting library                          : ZJMedia MPEG Encoder\n\nAudio\nID                                       : 2\nFormat                                   : AAC\nFormat/Info                              : Advanced Audio Codec\nFormat profile                           : LC\nCodec ID                                 : 40\nDuration                                 : 2h 25mn\nBit rate mode                            : Variable\nBit rate                                 : 128 Kbps\nChannel(s)                               : 2 channels\nChannel positions                        : Front: L R\nSampling rate                            : 48.0 KHz\nCompression mode                         : Lossy\nStream size                              : 133 MiB (8%)\n\n\n\n","torrent":{"xt":"urn:btih:e33cef4cc1eeffce6b9a88847ebabec14d6ec4c7","amp;dn":"Gone+Girl+2014+480p+FIRST+HDCAM+ENGLISH+x264+Pimp4003","amp;tr":["udp%3A%2F%2Ftracker.openbittorrent.com%3A80","udp%3A%2F%2Fopen.demonii.com%3A1337","udp%3A%2F%2Ftracker.coppersurfer.tk%3A6969","udp%3A%2F%2Fexodus.desync.com%3A6969"],"infoHash":"e33cef4cc1eeffce6b9a88847ebabec14d6ec4c7","infoHashBuffer":{"type":"Buffer","data":[227,60,239,76,193,238,255,206,107,154,136,132,126,186,190,193,77,110,196,199]},"announce":[],"urlList":[]}}